# xmcd
#
# Track frame offsets:
#	150
#	35772
#	41597
#	45590
#	70285
#	75862
#	77650
#	92630
#	115440
#	120690
#	145757
#	148857
#	154652
#	157812
#	161355
#	176707
#	178345
#	181367
#	185165
#	224942
#	226130
#	236632
#	238645
#	245012
#	253845
#	254675
#	257735
#	260787
#	264647
#	299222
#	305067
#	326300
#	328155
#	332685
#	334665
#	338932
#
# Disc length: 4644 seconds
#
# Revision: 1
# Processed by: cddbd v1.5.1PL0 Copyright (c) Steve Scherf et al.
# Submitted via: CDex 1.50Beta5
#
DISCID=32122224
DTITLE=J. S. Bach - La Petite Bande - Weihnachts Oratorium, BWV 248 - Disk 1 Of 2
DYEAR=1997
DGENRE=Baroque
TTITLE0=I. Teil: Am 1. Weihnachtstag - 1. Coro: Jauchzet, Frohlocket, Auf, Preiset Die
TTITLE1=2. Evangelista: Es Begab Sich Aber Zu Der Zeit
TTITLE2=3. Nun Wird Mein Liebster Br将」utigam
TTITLE3=4. Aria: Bereite Dich, Zion
TTITLE4=5. Choral: Wie Soll Ich Dich Empfangen
TTITLE5=6. Evangelista: Und Sie Gebar Ihren Ersten Sohn
TTITLE6=7. Choral: Er Ist Auf Erden Kommen Arm
TTITLE7=8. Aria: Grosser Herr, O Starker K将モnig
TTITLE8=9. Choral: Ach Mein Herzliebes Jesulein
TTITLE9=II. Teil: Am 2. Weihnachtstag - 10. Sinfonia
TTITLE10=11. Evangelista: Und Es Waren Hirten In Derselben Gegend
TTITLE11=12. Choral: Brich An, O Sch将モnes Morgenlicht
TTITLE12=13. Evangelista: Und Der Engel Sprach Zu Ihnen
TTITLE13=14. Recitativo: Was Gott Dem Abraham Verheissen
TTITLE14=15. Aria: Frohe Hirten, Eilt, Ach Eilet
TTITLE15=16. Evangelista: Und Das Hebt Zum Zeichen
TTITLE16=17. Choral: Schaut Hin, Dort Liegt Im Finstern Stall
TTITLE17=18. Recitativo: So Geht Nun Hin, Ihr Hirten Geht
TTITLE18=19. Aria: Schlafe, Mein Liebster, Geniesse Der Ruh
TTITLE19=20. Evangelista: Und Alsobald War Da Bei Dem Engel
TTITLE20=21. Chorus: Ehre Sei Gott In Der H将モhe
TTITLE21=22. Recitativo: So Recht, Ihr Engel, Jauchzt Und Singet
TTITLE22=23. Choral: Wir Singen Dir In Deinem Heer
TTITLE23=III. Teil: Am 3. Weihnachtstag - 24. Coro: Herrscher Des Himmels Erh将モre Das Lal
TTITLE24=25. Evangelista: Und Da Die Engel Von Ihnen Gen Himmel F将臧ren
TTITLE25=26. Chorus, Lasset Uns Nun Gehen Gen Bethlehem
TTITLE26=27. Recitativo: Er Hat Sein Volk Getr将モst
TTITLE27=28. Choral: Dies Hat Er Alles Uns Getan
TTITLE28=29. Aria Duetto: Herr, Dein Mitleid, Dein Erbarmen
TTITLE29=30. Evangelista: Und Sie Kamen Eilend
TTITLE30=31. Aria: Schliess, Mein Herze, Dies Selige Wunder
TTITLE31=32. Recitativo: Ja, Ja, Mein Herz Soll Es Bewahren
TTITLE32=33. Choral: Ich Will Dich Mit Fleiss Bewahren
TTITLE33=34. Evangelista: Und Die Hirten Kehrten Wieder Um
TTITLE34=35. Choral: Seid Froh Dieweil
TTITLE35=36. Coro: Herrscher Des Himmels, Erh将モre Das Lallen
EXTD=
EXTT0=
EXTT1=
EXTT2=
EXTT3=
EXTT4=
EXTT5=
EXTT6=
EXTT7=
EXTT8=
EXTT9=
EXTT10=
EXTT11=
EXTT12=
EXTT13=
EXTT14=
EXTT15=
EXTT16=
EXTT17=
EXTT18=
EXTT19=
EXTT20=
EXTT21=
EXTT22=
EXTT23=
EXTT24=
EXTT25=
EXTT26=
EXTT27=
EXTT28=
EXTT29=
EXTT30=
EXTT31=
EXTT32=
EXTT33=
EXTT34=
EXTT35=
PLAYORDER=
